<svg xmlns="http://www.w3.org/2000/svg" viewBox="0 0 512 512" role="img" aria-label="Triumph Plaza Hotel Laundry">
  <defs>
    <linearGradient id="gold" x1="112" x2="400" y1="88" y2="424" gradientUnits="userSpaceOnUse">
      <stop stop-color="#f3dfaa"/>
      <stop offset=".45" stop-color="#c9a45c"/>
      <stop offset="1" stop-color="#8f6f2d"/>
    </linearGradient>
    <linearGradient id="marble" x1="0" x2="512" y1="0" y2="512" gradientUnits="userSpaceOnUse">
      <stop stop-color="#050505"/>
      <stop offset=".52" stop-color="#11100d"/>
      <stop offset="1" stop-color="#000"/>
    </linearGradient>
  </defs>
  <rect width="512" height="512" rx="104" fill="url(#marble)"/>
  <path d="M96 132h320" stroke="url(#gold)" stroke-width="10" stroke-linecap="round"/>
  <path d="M96 380h320" stroke="url(#gold)" stroke-width="10" stroke-linecap="round"/>
  <path d="M142 178h228c24 0 44 20 44 44 0 24-20 44-44 44H142v-88Z" fill="none" stroke="url(#gold)" stroke-width="18" stroke-linejoin="round"/>
  <path d="M142 266h198c24 0 44 20 44 44s-20 44-44 44H142v-88Z" fill="none" stroke="url(#gold)" stroke-width="18" stroke-linejoin="round"/>
  <path d="M144 172v188" stroke="#f8f3e8" stroke-width="16" stroke-linecap="round"/>
  <path d="M206 214h120M206 310h92" stroke="#f8f3e8" stroke-width="14" stroke-linecap="round"/>
  <path d="M256 78c32 28 70 42 114 42-44 0-82 14-114 42-32-28-70-42-114-42 44 0 82-14 114-42Z" fill="url(#gold)"/>
</svg>
